<svg xmlns="http://www.w3.org/2000/svg" width="1254" height="1254" preserveAspectRatio="none" style="display: block;" version="1.1" viewBox="0 0 2048 2048"><defs><linearGradient id="e" x1="1504.25" x2="1527.75" y1="1566.75" y2="1590.25" gradientUnits="userSpaceOnUse"><stop class="stop0" offset="0" stop-color="rgb(105,105,106)" stop-opacity="1"></stop><stop class="stop1" offset="1" stop-color="rgb(133,133,130)" stop-opacity="1"></stop></linearGradient><linearGradient id="d" x1="1396.15" x2="1415.14" y1="1563.55" y2="1592.91" gradientUnits="userSpaceOnUse"><stop class="stop0" offset="0" stop-color="rgb(98,97,99)" stop-opacity="1"></stop><stop class="stop1" offset="1" stop-color="rgb(131,132,129)" stop-opacity="1"></stop></linearGradient><linearGradient id="c" x1="992.324" x2="987.511" y1="1562.17" y2="1594.96" gradientUnits="userSpaceOnUse"><stop class="stop0" offset="0" stop-color="rgb(107,107,106)" stop-opacity="1"></stop><stop class="stop1" offset="1" stop-color="rgb(129,130,130)" stop-opacity="1"></stop></linearGradient><linearGradient id="b" x1="487.586" x2="511.895" y1="1566.35" y2="1591.14" gradientUnits="userSpaceOnUse"><stop class="stop0" offset="0" stop-color="rgb(95,95,97)" stop-opacity="1"></stop><stop class="stop1" offset="1" stop-color="rgb(123,123,123)" stop-opacity="1"></stop></linearGradient><linearGradient id="a" x1="1153.53" x2="1175.39" y1="1564.06" y2="1594.44" gradientUnits="userSpaceOnUse"><stop class="stop0" offset="0" stop-color="rgb(101,101,102)" stop-opacity="1"></stop><stop class="stop1" offset="1" stop-color="rgb(123,122,123)" stop-opacity="1"></stop></linearGradient></defs><path fill="#000" d="M969.53 448.541Q977.492 447.923 985.473 447.678C1035.3 446.531 1105.57 460.858 1140.79 501.615C1149.25 512.28 1148.41 527.695 1159.55 536.326C1175.58 548.743 1207.96 549.798 1222.05 562.162C1235.56 574.005 1223.52 601.394 1211.77 612.744C1204.87 642.855 1189.02 664.324 1159.9 675.348C1133.22 685.445 1123.6 687.704 1103.69 709.393C1081.98 730.604 1078.84 774.227 1087.73 802.333C1098.94 837.722 1110.06 860.918 1111.16 900.466C1106.12 901 1101.08 901.585 1096.05 902.223C1096.21 835.39 1050.44 797.827 1073.48 731.437C1081.78 705.846 1103.43 680.778 1129.5 671.504C1162.18 659.879 1186.04 650.318 1198.03 613.725C1183.3 605.048 1174.62 600.088 1169.62 582.909C1144.32 583.053 1128.82 585.725 1104.2 589.18C1092.49 590.102 1080.71 590.105 1068.97 590.692C1042.34 592.023 1016.58 596.724 992.04 607.477C961.087 621.037 934.227 643.854 921.893 675.996C904.006 722.61 920.913 769.467 962.749 795.839C984.714 809.992 1006.3 817.877 1026.47 835.327C1053.23 858.478 1067.03 882.255 1081.16 913.974C1128.25 914.523 1182.76 901.865 1219.08 869.272C1230.43 859.084 1239.26 840.466 1252.06 829.345C1269.25 814.428 1283.03 809.206 1305.69 809.693C1313.49 789.988 1321.65 770.425 1330.15 751.01C1300.13 730.061 1284.11 719.857 1267.81 683.614A138.83 138.83 0 0 1 1265.42 575.917C1279.42 539.541 1304.92 513.024 1340.58 497.411A143 143 0 0 1 1451.25 495.369A136 136 0 0 1 1515.97 546.248A143.62 143.62 0 0 1 1537.86 654.561C1523.36 727.165 1457.34 774.416 1383.76 767.17C1377.12 766.517 1370.45 765.084 1363.91 763.761L1340.82 821.554C1359.97 837.302 1360.47 852.703 1345.83 871.484C1347.93 889.915 1344.21 897.188 1329.83 908.386L1329.51 910.044C1322.87 943.815 1289.9 953.705 1259.77 947.679C1254.25 955.318 1240.47 968.644 1233.26 975.512C1183.39 1023.06 1146 1046.76 1079.53 1063.93C1127.83 1078.74 1173.17 1081.69 1222.95 1072.59C1238.06 1069.83 1251.93 1065.24 1266.88 1062.29C1260.8 1066.5 1248.48 1072.58 1241.74 1075.63C1153.93 1115.36 1066.36 1108.3 981.764 1064.73C943.646 1045.09 911.01 1025.08 870.714 1009.97C789.318 979.438 699.873 989.669 621.985 1026.24C637.062 975.089 663.801 918.533 697.225 878.565C751.647 813.488 768.282 785.149 770.82 699.182C772.3 649.036 786.239 561.614 817.252 521.182C850.012 478.473 916.695 455.709 969.53 448.541ZM1412.61 740.843C1475.58 732.971 1520.25 675.559 1512.42 612.585C1504.58 549.611 1447.19 504.901 1384.21 512.703C1321.19 520.511 1276.43 577.953 1284.28 640.977C1292.12 704.001 1349.59 748.722 1412.61 740.843ZM848.053 581.46C832.089 556.666 846.439 531.437 876.571 537.582C882.528 538.797 893.395 549.192 897.628 549.381C903.226 542.608 890.719 530.734 885.301 527.561C876.168 522.212 867.118 522.256 856.899 523.162C845.469 526.564 837.045 532.378 831.361 543.224A40.24 40.24 0 0 0 829.002 574.253A38.77 38.77 0 0 0 849.305 597.082C855.529 599.964 866.469 603.991 870.641 596.129C868.497 592.097 855.917 589.897 848.053 581.46ZM1045.26 546.282C1057.13 551.99 1068.32 559.052 1081.17 560.735L1082.34 560.169C1079.82 555.357 1078.48 553.344 1077.65 547.851C1079.49 541.409 1080.49 538.623 1086.52 535.291C1102.61 526.393 1102.41 544.945 1107.54 549.042L1108.79 547.618C1107.19 542.003 1101.5 531.585 1096.62 528.07C1089.82 523.176 1084.42 522.94 1076.33 523.271C1061.71 526.796 1054.56 535.159 1045.26 546.282ZM1198.62 573.149C1203.38 573.092 1206.71 573.507 1210.98 571.502L1212.45 569.591C1209.73 562.528 1200 562.863 1193.67 563.18C1189.29 565.418 1184.27 568.117 1181.52 572.348L1181.37 574.059C1186.87 577.817 1192.51 574.745 1198.62 573.149Z"></path><path fill="#000" d="M1408.8 575.587C1413.67 575.598 1418.99 575.505 1420.69 580.587C1418.75 590.224 1392.15 673.052 1388.13 679.807C1383.99 679.224 1379.49 678.08 1375.37 677.143L1395.64 613.515C1398.91 603.326 1404.49 584.324 1408.8 575.587ZM1440.87 591.601C1448.95 595.322 1479.73 620.577 1487.1 627.481C1481.38 635.413 1455.39 654.834 1446.21 662.199L1443.1 664.312C1436.19 663.674 1432.78 655.872 1437.71 651.005C1445.72 643.105 1457.08 635.105 1465.82 627.931C1459.27 622.397 1435.59 606.591 1434.41 600.259C1435.81 596.24 1437.82 594.767 1440.87 591.601ZM1354.49 591.669C1359.65 594.343 1360.48 596.68 1363.72 601.556C1357.64 608.306 1339.88 621.271 1331.59 628.334C1341.95 636.044 1354.41 645.894 1364.21 654.255C1361.25 659.089 1360.24 660.809 1356.38 665.101L1354.78 665.022C1342.33 654.977 1328.95 644.775 1316.71 634.486C1314.2 632.38 1313.34 630.066 1313.35 626.838C1315.84 619.881 1346.07 598.246 1354.49 591.669Z"></path><path fill="#000" fill-opacity=".157" d="M863.431 530.576C871.281 529.619 873.883 528.642 880.555 533.012C874.858 532.142 867.695 532.903 863.431 530.576Z"></path><path fill="#000" d="M608.68 1150.43L608.869 1150.4C688.975 1143.64 771.063 1189.42 792.335 1269.91C799.433 1296.77 801.06 1324.94 794.858 1352.19C776.651 1432.18 718.82 1473.45 639.896 1481.9C589.042 1484.2 545.207 1474.71 504.998 1441.27C470.946 1412.95 451.844 1371.38 448.58 1327.43A166.24 166.24 0 0 1 488.721 1207.31C517.931 1173.54 564.614 1153.5 608.68 1150.43ZM640.755 1434.96C706.111 1425.61 751.553 1365.1 742.317 1299.73C733.082 1234.36 672.657 1188.8 607.267 1197.92C541.711 1207.06 496.018 1267.68 505.277 1333.22S575.231 1444.34 640.755 1434.96ZM1295.27 1243.44C1297.79 1243.09 1300.03 1243.17 1302.49 1243.26C1345.76 1244.73 1385.23 1266.93 1401.85 1308.12C1411.59 1332.23 1413.09 1352.13 1411.87 1378.07L1237.8 1378.04C1244.06 1416.81 1273.08 1440.9 1313 1436.45C1335.36 1433.97 1347.99 1423.44 1361.56 1406.24L1371.54 1412.67C1380.31 1418.62 1390.93 1425.1 1399.98 1430.68C1396.73 1435.76 1393.14 1440.61 1389.21 1445.19C1349.76 1491.08 1269.53 1492.94 1224.85 1453.73C1175.85 1410.71 1172.53 1328.87 1214.83 1280.08C1235.08 1256.72 1265.09 1245.3 1295.27 1243.44ZM1238.21 1340.39L1307.5 1340.28C1325.14 1340.13 1342.78 1340.26 1360.41 1340.67C1353.09 1305.23 1330.21 1284.61 1292.78 1288.33C1262.64 1292.13 1245.3 1311.76 1238.21 1340.39ZM750.014 1021.41C761.631 1019.69 780.552 1021.32 792.647 1022.15C889.696 1028.84 957.003 1097.48 1048.98 1118.76C1088.48 1127.9 1120.64 1127.5 1160.51 1123.44C1142.5 1131.77 1124.89 1134.93 1105.41 1137.86C1042.57 1147.31 985.291 1136.81 926.734 1113.61C901.252 1104.1 877.799 1091.82 851.444 1083.21C798.675 1065.95 745.097 1065.77 691.563 1079.55C640.124 1092.8 585.806 1100.58 534.48 1082.74C527.719 1080.39 519.267 1078.2 513.572 1073.71L514.347 1072.49C523.146 1070.69 536.152 1071.58 545.484 1071.11C595.595 1068.6 639.876 1047.69 686.946 1032.9C707.101 1026.57 728.739 1023.38 750.014 1021.41ZM858.991 1189.94C876.228 1189.77 893.467 1189.84 910.702 1190.13A1284 1284 0 0 1 910.472 1247.98C930.978 1247.15 950.852 1247.12 971.366 1247.02L970.799 1293.78C951.478 1292.75 930.489 1294.21 910.752 1293.27Q911.012 1329.51 910.861 1365.75C910.849 1382.63 908.595 1402 916.471 1417.31C927.785 1439.29 953.761 1428.55 969.976 1433.31C971.983 1436.17 971.18 1436.62 971.075 1441.04C971.285 1453.15 971.022 1465.91 970.944 1478.08C924.268 1478.96 875.673 1479.33 861.644 1422.24C857.176 1404.06 858.74 1383.84 858.717 1365.07Q858.601 1329.25 859.063 1293.43C850.746 1293.61 842.427 1293.72 834.108 1293.77C834.299 1278.59 833.999 1263.3 834.208 1247.98C842.867 1247.46 850.279 1247.72 858.91 1247.97C858.766 1228.63 858.793 1209.28 858.991 1189.94ZM1037.02 1189.96C1054.37 1189.83 1071.73 1189.86 1089.08 1190.05C1089.35 1209.36 1089.31 1228.67 1088.95 1247.98C1110.7 1247.22 1127.85 1246.71 1149.44 1247.93C1149.5 1263.31 1149.39 1278.69 1149.09 1294.07C1131.44 1292.89 1107.24 1293.61 1088.97 1293.39C1089.25 1317.3 1089.3 1341.21 1089.12 1365.11C1089.1 1377.01 1088.22 1391.78 1089.84 1403.22C1095.66 1444.21 1141.57 1428.22 1148.92 1433.67L1149.2 1437.75C1149.39 1451.33 1149.72 1464.5 1148.99 1478.07C1140.1 1478.45 1131.21 1478.66 1122.31 1478.7C1098.4 1478.7 1074.99 1473.28 1057.68 1455.86C1033.09 1431.11 1036.99 1393.49 1037.01 1361.74L1037.25 1293.42C1029.16 1293.47 1021.07 1293.59 1012.98 1293.77L1012.91 1247.92C1020.64 1247.59 1029.26 1247.87 1037.08 1247.97ZM1588.93 1245.8L1590.1 1246.96C1590.18 1262.58 1590.02 1278.2 1589.63 1293.81C1575.05 1293.41 1556.98 1292.06 1543.24 1297.09C1506.71 1310.48 1513.16 1352.42 1513.21 1383.07C1513.44 1414.41 1513.35 1445.75 1512.91 1477.09L1462.14 1477.14C1460.86 1475.61 1460.93 1473.18 1460.99 1471.07C1462.56 1418.64 1457.52 1364.12 1464.29 1312.19C1465.82 1300.46 1478.43 1279.73 1486.82 1271.36C1514.66 1243.56 1552.34 1245.54 1588.93 1245.8ZM1124.9 634.006C1126.5 633.974 1126.58 634.164 1128.17 634.595L1128.7 636.304C1125.67 641.448 1100.35 652.979 1092.84 657.651C1064.73 675.153 1046.46 693.269 1023.66 716.774L1020.97 716.999L1019.96 715.565C1020.46 710.922 1030.13 698.573 1033.38 694.532C1058.42 663.445 1087.8 646.922 1124.9 634.006ZM1122.24 611.433C1123.72 611.428 1123.87 611.77 1125.41 612.466L1125.56 614.283C1122.76 617.704 1113.4 619.666 1108.97 620.737C1068.39 630.549 1035.16 648.664 1002.65 674.507C1001.59 674.529 1000.62 674.077 999.508 673.729L998.999 672.067C1002.29 663.748 1021.19 649.88 1028.67 644.874C1056.23 626.431 1089.2 614.473 1122.24 611.433Z"></path><path fill="#000" d="M1118.03 1561.1C1142.04 1558.36 1148.94 1582.89 1129.55 1596.24C1117.06 1598.12 1112.91 1595.92 1106.06 1585.39C1105.83 1580.98 1106.01 1576.01 1106.06 1571.54C1110.04 1565.55 1111.52 1564.06 1118.03 1561.1ZM1125.42 1589.97C1129.52 1589.15 1132.84 1586.13 1134.06 1582.12C1135.27 1578.12 1134.19 1573.77 1131.24 1570.8S1123.94 1566.72 1119.93 1567.91C1114.09 1569.64 1110.65 1575.66 1112.12 1581.57S1119.45 1591.18 1125.42 1589.97ZM1211.81 1560.86C1222.65 1562.41 1224.41 1573.31 1228.98 1582.54C1231.79 1577.19 1238.57 1561.78 1243.02 1560.19C1249.66 1564.05 1249.67 1589.5 1246.04 1595.69C1242.94 1596.7 1244.54 1596.52 1241.03 1595.81C1239.3 1592.58 1239.78 1587.81 1239.69 1583.75C1239.74 1581.4 1239.67 1581.23 1239.39 1578.91C1234.73 1580.49 1235.01 1593.07 1227.04 1591.51C1222.47 1587.15 1220.25 1578.43 1218.23 1572.32C1218.45 1578.98 1220 1593.86 1214.29 1598C1208.26 1590.31 1210.9 1570.16 1211.81 1560.86ZM1430.51 1561.41C1437.22 1561.11 1452.8 1559.74 1454.43 1570.22C1455.2 1575.22 1452.26 1579.31 1448.91 1582.86C1451.26 1586.65 1454.56 1591 1455.09 1595.21L1453.72 1596.32C1449.25 1595.93 1451.03 1596.77 1447.87 1594.44C1445.59 1590.75 1442.14 1584.05 1438.56 1582.61C1435.33 1587.34 1437.87 1594.77 1432.42 1596.93L1430.76 1596.07C1428.74 1590.19 1428.28 1566.18 1430.51 1561.41ZM1447.71 1575.65C1447.71 1571.32 1448.3 1572.44 1446.36 1569.11C1443.31 1567.24 1439.75 1567.65 1436.07 1567.6C1436.43 1571.08 1436.23 1573.9 1438.39 1576.47C1441.95 1577.64 1443.71 1576.86 1447.71 1575.65ZM620.777 1561.44C636.732 1560.91 650.354 1567.64 635.695 1582.9C638.866 1587.9 640.312 1589.47 640.64 1595.28L638.667 1596.66C635.624 1595.07 635.67 1595.09 633.158 1592.74C631.342 1589.63 628.424 1584.1 624.994 1582.64C621.83 1585.05 624.799 1593.83 619.398 1596.17C617.782 1595.13 615.419 1593.7 615.642 1591.63C616.22 1586.25 614.736 1565.4 616.573 1561.97ZM633.601 1575.64C634.003 1571.43 634.537 1572.41 632.826 1569.28C629.746 1567.39 625.864 1567.82 622.116 1567.77C622.54 1572.65 621.756 1572.22 624.2 1575.6C627.734 1576.65 629.95 1576.07 633.601 1575.64Z"></path><path fill="#000" d="M1153.11 1561.51C1167.37 1560.89 1190.09 1563.37 1172.32 1582.46C1174.55 1586.2 1179.45 1592.09 1177.14 1595.96L1172.54 1596.34C1169.55 1591.41 1167.27 1587.26 1163.31 1583C1160.04 1583.44 1161.12 1592.38 1156.41 1597.51L1154.39 1596.06C1152 1589 1153 1569.8 1153.11 1561.51ZM1170.76 1575.62C1171.33 1571.19 1171.74 1573.13 1170.16 1569.49C1167.2 1567.33 1163.22 1567.71 1159.39 1567.68C1159.74 1572.31 1159.01 1573.07 1161.27 1576.23C1164.79 1576.78 1167.25 1576.15 1170.76 1575.62Z"></path><path fill="#000" d="M1014.74 1561.59C1029.82 1560.91 1051.25 1564.14 1033.64 1583.14C1035.94 1586.77 1040.29 1591.69 1038.56 1595.73L1034.31 1596.18C1030.9 1591.98 1027.34 1582.23 1022.08 1583.7C1019.71 1587.55 1022.26 1589.5 1020.62 1594.23C1017.61 1596.13 1019.15 1595.9 1015.94 1595.28C1013.5 1590.21 1014.11 1567.65 1014.74 1561.59ZM1032.29 1576.42C1032.89 1571.84 1033.38 1573.03 1031.76 1569.32C1028.82 1567.1 1024.65 1567.29 1020.82 1566.98C1021.07 1571.38 1020.46 1573.63 1022.63 1576.92C1026.24 1577.65 1028.67 1576.98 1032.29 1576.42ZM1542.32 1561.38C1557.42 1560.87 1575.56 1564.07 1559.05 1582.54C1561.23 1586.08 1564.98 1591.57 1564.92 1595.69L1563.38 1596.59C1560.8 1595.88 1561.04 1595.83 1558.6 1594.56C1556.41 1591.06 1552.56 1583.41 1548.56 1582.83C1545.6 1586.36 1547.36 1593.04 1544.06 1596.1L1541.38 1595.72C1539.45 1592.34 1539.8 1567.35 1540.41 1562.64ZM1557.71 1575.69C1558.17 1571.37 1558.7 1572.42 1556.96 1569.22C1553.67 1567.35 1550.61 1567.79 1546.74 1567.76C1546.95 1572.09 1546.25 1573.12 1548.28 1576.12C1551.77 1576.75 1554.21 1576.17 1557.71 1575.69ZM893.41 1560.7C904.06 1563.41 909.105 1575.32 914.841 1584.89C914.743 1579.03 913.764 1565.43 917.686 1561.11L918.901 1562.19C922.364 1570.71 922.309 1587.64 920.706 1596.54C911.891 1595.83 904.733 1581.64 900.051 1574.45C900.181 1580.89 901.053 1589.55 898.708 1595.21C895.919 1597.37 897.46 1596.94 893.921 1596.49C889.898 1590.74 892.736 1568.67 893.41 1560.7ZM936.005 1560.66L937.405 1561.04C947.04 1563.56 951.395 1573.72 956.763 1582.43C957.419 1576.43 958.017 1566.64 960.235 1561.52L961.681 1561.44C967.087 1567.84 967.371 1591.47 961.769 1598.15C954.986 1594.14 946.827 1580.14 942.192 1573.03C942.554 1577.67 943.477 1593.37 940.832 1595.93L938.506 1595.37C934.14 1589.97 935.852 1568.77 936.005 1560.66ZM1303.78 1561.58C1309.37 1561.24 1315.45 1560.53 1320.86 1562.67C1333.25 1567.58 1329.7 1580.82 1317.75 1583.46L1310.92 1584.13C1309.12 1586.14 1309.85 1590.75 1309.7 1594.47C1307.53 1596.52 1308.82 1595.96 1305.57 1595.88L1303.82 1594.02C1303.25 1585.69 1302.86 1569.79 1303.78 1561.58ZM1320.3 1575.96C1321.16 1571.51 1321.47 1573.54 1319.61 1569.61C1316.2 1567.26 1314.19 1567.43 1309.89 1567.11C1309.82 1570.62 1309.26 1574.42 1311.08 1577.23C1314.43 1578.3 1316.61 1577.25 1320.3 1575.96ZM456.363 1561.05C463.354 1560.64 474.727 1560.37 474.6 1569.95C468.107 1572.77 462.637 1563.07 457.507 1570.21C458.047 1572.44 496.873 1588.48 464.731 1597.13C458.929 1597.09 447.717 1595.25 448.308 1587.33C457.671 1582.96 455.299 1590.57 463.451 1590.42C467.307 1588.84 466.569 1590.02 468.05 1587.4C463.797 1579.91 435.697 1575.41 456.363 1561.05ZM863.73 1560.43C866.384 1561.17 867.66 1560.95 869.129 1563.42C872.597 1569.25 881.632 1589.6 880.664 1595.32L878.334 1596.16C872.455 1593.34 875.562 1589.73 869.225 1587.85C868.176 1587.89 862.245 1588.18 861.657 1588.58C858.594 1590.68 854.582 1595.29 850.636 1595.01C850.211 1589.43 860.401 1566.09 863.73 1560.43ZM536.542 1561.25C544.233 1560.55 557.78 1560.27 557.384 1571.19L555.771 1572.57C551.647 1572.34 538.598 1562.29 535.209 1569.51C528.929 1582.89 533.836 1591.46 548.311 1589.05C551.372 1585.78 551.501 1584.72 555.647 1585.51L556.786 1587.3C555.59 1599.9 534.249 1599.42 528.59 1590.93C520.572 1578.89 525.112 1568.08 536.542 1561.25Z"></path><path fill="#000" d="M491.335 1561.44C497.4 1561.22 507.868 1560.46 512.872 1564.62C506.175 1570.13 496.71 1563.37 495.097 1572.43C499.564 1575.19 504.878 1574.16 510.846 1576.52L510.962 1578.61C505.765 1585.46 498.614 1575.88 494.886 1587.11C499.93 1592.51 507.138 1587.39 512.388 1591.2C512.835 1594.77 513.422 1593.62 511.894 1595.62C504.871 1596.38 496.075 1596.19 488.861 1596.23C488.831 1588.91 488.412 1568.24 489.553 1562.32Z"></path><path fill="#000" d="M571.899 1561.56C574.132 1561.7 574.619 1561.82 576.808 1562.34C582.799 1570.31 576.089 1579.49 580.7 1587.81C582.632 1589.28 583.892 1590.14 586.474 1590.04C601.175 1589.47 588.653 1569.72 596.08 1562.27C599.398 1561.65 597.924 1561.31 600.702 1562.58L600.894 1566.75C601.217 1577.72 602.159 1597.33 585.919 1597.81A13.66 13.66 0 0 1 575.821 1593.73C569.644 1587.5 571.702 1570.62 571.899 1561.56ZM782.945 1559.97C789.191 1559.81 798.264 1561.38 796.557 1569.57C792.547 1569 784.059 1567.31 780.882 1569.04C783.175 1575.01 794.373 1574.78 799.535 1585.44C799.565 1592.52 792.788 1596.01 786.537 1597.58C781.268 1596.53 773.679 1594.36 772.622 1588.05C776.034 1586.91 784.791 1589.1 789.039 1589.78C791.066 1588.16 790.385 1589.16 790.818 1586.55C786.018 1579.58 775.26 1580.23 773.602 1569.86C775.248 1564.09 777.945 1562.9 782.945 1559.97ZM1584.93 1559.92C1590.55 1559.91 1598.02 1562.36 1600.9 1567.43L1600.38 1568.94C1594.57 1570.45 1589.43 1567.02 1583.54 1568.52L1583.3 1570.03C1588 1577.06 1601.13 1577.92 1600.97 1588.99C1598.52 1593.82 1593.97 1595.75 1589.09 1597.37C1583.77 1596.94 1575.72 1594.4 1574.4 1588.59L1576.31 1586.51C1581.37 1585.72 1582.3 1589.9 1588.56 1590.59C1592.19 1588.6 1591.25 1590.01 1592.6 1586.96C1589.06 1580.11 1577.34 1580.46 1575.6 1569.87C1577.21 1564.05 1579.86 1562.98 1584.93 1559.92ZM821.278 1561.04C828.678 1560.3 837.581 1561.24 840.215 1569.4L839.054 1571.22C834.442 1572.15 814.085 1557.45 816.821 1583.28C817.615 1590.78 825.39 1591.57 832.252 1588.78C835.402 1585.63 835.511 1584.48 839.462 1586.56L839.879 1588.69C832.906 1607.44 799.756 1592.47 810.097 1571.08C813.172 1564.72 814.733 1563.6 821.278 1561.04Z"></path><path fill="#000" d="M979.685 1561.48C991.404 1560.87 995.941 1560.98 1007.23 1563.93C998.794 1566.69 995.923 1567.02 986.742 1567.49C985.153 1569.77 985.553 1570.16 985.66 1573.07C987.847 1576.39 991.368 1573.74 998.136 1575.2C1000.15 1578.06 999.757 1576.55 999.643 1579.82C996.123 1582.36 990.143 1579.79 984.869 1582.64C987.752 1596.2 992.827 1583.94 1001.9 1590.48C1001.93 1593.91 1002.35 1592.34 1000.45 1595.32C996.082 1596.87 984.152 1596.22 978.853 1596.15C978.792 1588.08 978.389 1568.21 979.685 1561.48Z"></path><path fill="#000" d="M1368.03 1559.93C1373.26 1560.37 1377.89 1561.4 1381.5 1565.41C1382.12 1568.72 1382.45 1567.3 1380.9 1569.9C1375.09 1571.17 1371.86 1565.12 1366.43 1567.95C1366.26 1568.86 1366.1 1569.76 1365.94 1570.67C1372.6 1576.77 1380.14 1577.06 1383.95 1585.87C1383.76 1592.94 1377.8 1595.67 1371.53 1597.5C1365.82 1596.78 1359.42 1593.94 1356.8 1588.51C1359.68 1582.97 1365.49 1588.39 1368.64 1590.57C1371.89 1590.77 1374.32 1590.22 1375.43 1586.97C1371.08 1579.78 1359.58 1580.18 1358.4 1569.35C1360.35 1563.65 1362.86 1562.74 1368.03 1559.93Z"></path><path fill="#000" d="M1395.01 1561.52C1400.43 1561.28 1415.25 1559.11 1416.65 1565.05C1412.62 1569.52 1406.73 1565.48 1401.96 1568.51L1402.07 1573.45C1405.24 1575.26 1409.96 1574.62 1414.47 1574.95C1416.46 1577.78 1415.91 1576.2 1415.78 1579.97C1412.71 1582.52 1406.3 1580.02 1401.44 1582.34L1401.99 1587.75C1407.1 1593.01 1411.81 1588.41 1417.5 1590.78C1417.97 1593.86 1418.35 1592.53 1416.98 1594.98C1411.35 1596.29 1401.31 1596.05 1395.15 1596.12C1394.97 1584.69 1395.05 1572.98 1395.01 1561.52Z"></path><path fill="#000" d="M1271.01 1561.17C1277.82 1560.47 1288.44 1560.75 1290.79 1568.91L1289.73 1570.52C1281.09 1572.41 1280.74 1566.7 1271.97 1567.08C1263.43 1571.47 1263.94 1585.52 1274.41 1590.53C1278.08 1590.88 1279.3 1589.78 1282.56 1588.03C1285.5 1585.92 1286.31 1585.86 1289.2 1586.08L1290.38 1587.65C1289.67 1590.75 1287.68 1593.91 1284.65 1595.18C1261.4 1604.94 1247.78 1572.53 1271.01 1561.17Z"></path><path fill="#000" d="M1505.94 1561.56C1511.46 1561.34 1523.39 1560.1 1527.44 1563.49C1524.38 1566.52 1517.58 1566.73 1512.14 1569.89L1512.12 1573.87C1517.02 1576.92 1522.7 1571.37 1527.54 1577.59L1526.59 1579.47C1521.01 1582.33 1519.84 1580.5 1513.78 1581.81L1511.88 1582.24C1512.1 1585.58 1512.04 1586.07 1512.99 1589.39C1519.01 1591.63 1523.8 1585.82 1528.59 1591.4C1528.25 1594.25 1528.7 1592.86 1526.25 1595.31C1522.09 1596.65 1511.01 1596.11 1506.02 1596.06Z"></path><path fill="#000" d="M1463.04 1560.69C1478 1561.9 1472.38 1577.78 1478.5 1584.4C1483.18 1583.88 1482.88 1559.65 1494.1 1561.64C1494.82 1564.56 1493.51 1565.95 1492.15 1569.44C1489.7 1576.37 1485.15 1595.22 1477.43 1595.91C1472 1592.4 1465.33 1568.14 1463.04 1560.69ZM1073.97 1561.56C1078.93 1561.25 1092.04 1560.18 1095.35 1563.86C1092.28 1566.91 1086.08 1567.24 1081.96 1567.48L1080.66 1567.54C1080.47 1571.55 1080.4 1571.58 1081.28 1575.44C1087.88 1575.46 1090.32 1574.45 1094.51 1579.64C1091.31 1581.1 1084.04 1581.6 1080.23 1582.04C1080.23 1586.89 1081.27 1594.74 1076.53 1596.92C1071.54 1590.29 1073.33 1569.89 1073.97 1561.56ZM728.497 1574.56C730.971 1569.83 734.783 1562.19 740.612 1561.48L741.508 1563C741.004 1567.77 737.644 1571.76 734.885 1575.93C729.943 1584.5 734.139 1591.24 729.56 1595.63L726.412 1595.42C724.498 1592.35 725.057 1586.04 724.921 1581.76L711.685 1560.88C722.61 1561.07 723.508 1565.92 728.497 1574.56ZM686.174 1561.4C690.313 1561.35 697.693 1560.9 701.352 1562.03C702.938 1564.56 702.717 1563.24 702.11 1566.11C698.287 1568.81 696.834 1565.69 692.787 1568.09C691.896 1572.79 692.395 1589.37 692.202 1595.67C690.294 1595.72 689.596 1595.56 687.695 1595.32C684.112 1591.15 685.861 1574.07 685.997 1567.67C681.534 1567.46 679.096 1567.94 675.91 1565.28L675.902 1563.56C678.979 1561.17 682.184 1561.56 686.174 1561.4ZM656.799 1561.61C660.224 1561.84 660.751 1561.26 662.884 1563.02C663.611 1573.16 663.058 1586.02 662.885 1596.38L657.981 1595.63C654.214 1590.73 656.4 1568.94 656.799 1561.61Z"></path></svg>
